<svg width="137" height="36" viewBox="0 0 137 36" fill="none" xmlns="http://www.w3.org/2000/svg">
<path d="M25.5226 28.8768C24.3173 28.6323 23.1478 28.2434 22.0408 27.7192C20.9545 27.2015 19.9385 26.5546 19.0161 25.7935L21.5329 22.7816C22.5995 23.6914 23.8322 24.3985 25.1671 24.8664C26.5481 25.339 28.0031 25.5747 29.4671 25.5631C31.5588 25.5631 33.1803 25.1864 34.3314 24.4329C34.8808 24.0935 35.3293 23.6201 35.6322 23.06C35.9351 22.4998 36.082 21.8724 36.0582 21.2399C36.1033 20.3967 35.8237 19.5674 35.2738 18.9138C34.7246 18.3246 34.0261 17.8858 33.248 17.641C32.2001 17.3111 31.1288 17.0562 30.0427 16.8784C30.0015 16.8727 29.9597 16.8727 29.9186 16.8784C29.8755 16.8845 29.8318 16.8845 29.7888 16.8784L29.4897 16.818C27.8915 16.5746 26.3159 16.2077 24.7777 15.7208C23.5442 15.3009 22.4649 14.5378 21.674 13.5263C20.8275 12.4071 20.4043 10.8581 20.4043 8.8794C20.3571 7.31656 20.7745 5.77365 21.6063 4.43553C22.449 3.17284 23.6703 2.1923 25.105 1.62656C26.8552 0.938502 28.7308 0.60256 30.6183 0.639034C31.6435 0.638218 32.6656 0.748626 33.6656 0.96821C34.6835 1.19273 35.6745 1.52003 36.6225 1.94476C37.6317 2.39992 38.592 2.95124 39.4892 3.59064L37.1868 6.7233C36.1829 5.9887 35.0772 5.3958 33.9026 4.96221C32.8534 4.57431 31.7408 4.37359 30.6183 4.36969C28.647 4.36969 27.1158 4.75373 26.0248 5.5218C25.4938 5.88637 25.0657 6.3749 24.7797 6.94244C24.4937 7.50998 24.3592 8.13833 24.3883 8.76967C24.3641 9.18507 24.4266 9.60093 24.5721 9.99222C24.7176 10.3835 24.943 10.7421 25.2348 11.0465C25.8225 11.6173 26.5452 12.0393 27.3397 12.2754C28.4892 12.6114 29.6573 12.8843 30.8384 13.0928H30.9851C31.0368 13.0991 31.0878 13.1102 31.1375 13.1258L31.3519 13.1642L31.572 13.2026C33.0672 13.4766 34.5317 13.89 35.9454 14.437C37.1303 14.9185 38.15 15.7176 38.8854 16.7412C39.7382 18.0332 40.1509 19.5535 40.0648 21.0863V21.1302C40.1133 22.6827 39.6765 24.213 38.8121 25.5192C37.9244 26.7816 36.6629 27.7517 35.1948 28.3008C33.3681 28.9798 31.4222 29.3041 29.4671 29.2554C28.1422 29.2644 26.8201 29.1375 25.5226 28.8768Z" fill="white"/>
<path d="M45.42 0.929823H49.4661V28.9756H45.42V0.929823ZM47.4911 14.3547H56.7175C57.5278 14.3717 58.3263 14.1643 59.0199 13.7567C59.689 13.3474 60.2221 12.7587 60.5548 12.0614C60.9395 11.2715 61.1325 10.4062 61.1191 9.53228C61.1335 8.65296 60.9405 7.78213 60.5548 6.98665C60.2226 6.28625 59.6896 5.69384 59.0199 5.28043C58.3285 4.86667 57.5292 4.65525 56.7175 4.67145H47.4911V0.929823H56.5764C58.1535 0.910364 59.7088 1.28839 61.0909 2.02707C62.3843 2.72665 63.4424 3.77443 64.1382 5.04452C64.8845 6.43692 65.2572 7.98997 65.2216 9.55971C65.257 11.1259 64.8842 12.6754 64.1382 14.0639C63.4435 15.3306 62.3847 16.3733 61.0909 17.0649C59.7042 17.7879 58.1497 18.1525 56.5764 18.1238H47.4911V14.3547Z" fill="white"/>
<path d="M70.3174 0.92981H74.3635V28.9756H70.3174V0.92981ZM72.3207 25.2339H88.8267V28.9756H72.3207V25.2339Z" fill="white"/>
<path d="M97.6581 28.9756H93.6063V0.92981H97.6581V28.9756Z" fill="white"/>
<path d="M102.415 0.92981H122.77V4.67144H102.415V0.92981ZM110.57 3.22855H114.644V28.9756H110.592L110.57 3.22855Z" fill="white"/>
<path d="M135.53 5.73025L0.0909424 25.3153L0.576612 28.4899L136.016 8.90479L135.53 5.73025Z" fill="#1C3557"/>
<path d="M6.56177 26.1008L129.959 8.10585" stroke="white" stroke-width="0.75" stroke-miterlimit="10"/>
<path d="M13.2433 31.7297C14.948 31.7297 16.33 30.3861 16.33 28.7287C16.33 27.0713 14.948 25.7277 13.2433 25.7277C11.5385 25.7277 10.1565 27.0713 10.1565 28.7287C10.1565 30.3861 11.5385 31.7297 13.2433 31.7297Z" fill="white" stroke="white" stroke-width="2" stroke-miterlimit="10"/>
<path d="M13.2431 27.2474C13.4862 27.2474 13.6833 26.906 13.6833 26.4848C13.6833 26.0636 13.4862 25.7222 13.2431 25.7222C13 25.7222 12.803 26.0636 12.803 26.4848C12.803 26.906 13 27.2474 13.2431 27.2474Z" fill="#1C3557"/>
<path d="M13.2431 31.7297C13.4862 31.7297 13.6833 31.3883 13.6833 30.9671C13.6833 30.5459 13.4862 30.2045 13.2431 30.2045C13 30.2045 12.803 30.5459 12.803 30.9671C12.803 31.3883 13 31.7297 13.2431 31.7297Z" fill="#1C3557"/>
<path d="M15.5587 29.1542C15.9919 29.1491 16.3407 28.9534 16.3378 28.7171C16.3348 28.4808 15.9813 28.2933 15.5481 28.2984C15.115 28.3034 14.7662 28.4991 14.7691 28.7355C14.772 28.9718 15.1256 29.1592 15.5587 29.1542Z" fill="#1C3557"/>
<path d="M10.8789 29.2486C11.3121 29.2444 11.6613 29.0494 11.6589 28.8131C11.6564 28.5767 11.3033 28.3886 10.8701 28.3928C10.4369 28.397 10.0877 28.592 10.0901 28.8283C10.0925 29.0647 10.4457 29.2528 10.8789 29.2486Z" fill="#1C3557"/>
<path d="M15.2814 31.0061C15.4645 30.8507 15.382 30.4675 15.0971 30.1502C14.8122 29.8329 14.4328 29.7017 14.2497 29.8571C14.0665 30.0125 14.149 30.3957 14.4339 30.713C14.7188 31.0303 15.0982 31.1615 15.2814 31.0061Z" fill="#1C3557"/>
<path d="M12.2424 27.6453C12.4256 27.4899 12.3431 27.1067 12.0582 26.7894C11.7733 26.4721 11.3939 26.3409 11.2107 26.4964C11.0276 26.6518 11.1101 27.035 11.395 27.3523C11.6799 27.6696 12.0593 27.8008 12.2424 27.6453Z" fill="#1C3557"/>
<path d="M12.0907 30.7418C12.394 30.4386 12.4979 30.0586 12.3229 29.8932C12.1479 29.7278 11.7602 29.8395 11.4569 30.1427C11.1537 30.4459 11.0497 30.8259 11.2248 30.9913C11.3998 31.1568 11.7875 31.045 12.0907 30.7418Z" fill="#1C3557"/>
<path d="M15.1577 27.4243C15.4595 27.1221 15.5628 26.7437 15.3884 26.5791C15.214 26.4144 14.828 26.5259 14.5262 26.828C14.2244 27.1302 14.1211 27.5086 14.2955 27.6732C14.4699 27.8379 14.8559 27.7264 15.1577 27.4243Z" fill="#1C3557"/>
<path d="M129.841 8.1991C135.179 13.8609 137.286 18.6413 136.161 22.5402C132.474 35.2573 94.3419 38.5491 21.7643 32.4154" stroke="white" stroke-width="0.25" stroke-miterlimit="10"/>
</svg>
